<svg xmlns="http://www.w3.org/2000/svg" width="39.107" height="39.108" viewBox="0 0 39.107 39.108">
  <g id="Grupo_664" data-name="Grupo 664" transform="translate(-693.371 -238.398)">
    <g id="Grupo_663" data-name="Grupo 663">
      <path id="Trazado_6305" data-name="Trazado 6305" d="M712.925,277.206a19.254,19.254,0,1,1,19.253-19.254A19.252,19.252,0,0,1,712.925,277.206Zm0-37.285a18.031,18.031,0,1,0,18.031,18.031A18.026,18.026,0,0,0,712.925,239.921Z" fill="#15e7bc" stroke="#15e7bc" stroke-miterlimit="10" stroke-width="0.6"/>
      <path id="Trazado_6306" data-name="Trazado 6306" d="M705.1,263.025a.556.556,0,0,1-.428-.183.652.652,0,0,1-.122-.734l7.824-13.324c.122-.245.427.061.672.122s.428-.061.428.183v8.8a.641.641,0,0,1-.306.55l-7.824,4.523A.631.631,0,0,1,705.1,263.025Zm7.212-11.674-5.5,9.352,5.5-3.179Z" fill="#15e7bc" stroke="#15e7bc" stroke-miterlimit="10" stroke-width="0.6"/>
      <path id="Trazado_6307" data-name="Trazado 6307" d="M720.748,263.025a.55.55,0,0,1-.3-.061l-7.824-4.523a.643.643,0,0,1-.306-.55V249.15c0-.3.184-.3.428-.366s.55-.184.673.061l7.823,13.263a.565.565,0,0,1-.122.734A.435.435,0,0,1,720.748,263.025Zm-7.212-5.5,5.5,3.179-5.5-9.352Z" fill="#15e7bc" stroke="#15e7bc" stroke-miterlimit="10" stroke-width="0.6"/>
      <path id="Trazado_6308" data-name="Trazado 6308" d="M720.748,263.025H705.1a.663.663,0,0,1-.611-.428.544.544,0,0,1,.3-.672l7.824-4.584a.556.556,0,0,1,.611,0l7.763,4.462a.535.535,0,0,1,.367.55A.669.669,0,0,1,720.748,263.025ZM707.424,261.8h11l-5.5-3.179Z" fill="#15e7bc" stroke="#15e7bc" stroke-miterlimit="10" stroke-width="0.6"/>
      <path id="Trazado_6309" data-name="Trazado 6309" d="M712.925,277.022a.641.641,0,0,1-.55-.3l-15.954-27.261a.556.556,0,0,1,0-.611.643.643,0,0,1,.551-.306H729a.641.641,0,0,1,.55.306.556.556,0,0,1,0,.611l-16.075,27.261A.642.642,0,0,1,712.925,277.022Zm-14.914-27.26,14.914,25.427,14.914-25.427Z" fill="#15e7bc" stroke="#15e7bc" stroke-miterlimit="10" stroke-width="0.6"/>
    </g>
  </g>
</svg>
