<svg xmlns="http://www.w3.org/2000/svg" width="38.009" height="38.009" viewBox="0 0 38.009 38.009">
  <g id="circulos" transform="translate(-0.5 -424.833)">
    <g id="Grupo_427" data-name="Grupo 427" transform="translate(1 425.333)">
      <path id="Trazado_8456" data-name="Trazado 8456" d="M129.551,19.1A9.551,9.551,0,1,1,139.1,9.551,9.579,9.579,0,0,1,129.551,19.1Zm0-17.967a8.417,8.417,0,1,0,8.417,8.417A8.407,8.407,0,0,0,129.551,1.134Z" transform="translate(-111.046)" fill="#15e7bc" stroke="#15e7bc" stroke-width="1"/>
      <path id="Trazado_8457" data-name="Trazado 8457" d="M129.551,259.1a9.551,9.551,0,1,1,9.551-9.551A9.579,9.579,0,0,1,129.551,259.1Zm0-17.967a8.417,8.417,0,1,0,8.417,8.417A8.407,8.407,0,0,0,129.551,241.134Z" transform="translate(-111.046 -222.092)" fill="#15e7bc" stroke="#15e7bc" stroke-width="1"/>
      <path id="Trazado_8458" data-name="Trazado 8458" d="M9.551,139.1h0a9.551,9.551,0,1,1,9.551-9.551A9.579,9.579,0,0,1,9.551,139.1Zm0-17.967a8.417,8.417,0,1,0,8.417,8.417A8.407,8.407,0,0,0,9.551,121.134Z" transform="translate(0 -111.046)" fill="#15e7bc" stroke="#15e7bc" stroke-width="1"/>
      <path id="Trazado_8459" data-name="Trazado 8459" d="M249.551,139.1h0a9.551,9.551,0,1,1,9.551-9.551A9.579,9.579,0,0,1,249.551,139.1Zm0-17.967a8.417,8.417,0,1,0,8.417,8.417A8.407,8.407,0,0,0,249.551,121.134Z" transform="translate(-222.092 -111.046)" fill="#15e7bc" stroke="#15e7bc" stroke-width="1"/>
    </g>
  </g>
</svg>
